<svg width="89" height="24" viewBox="0 0 89 24" fill="none" xmlns="http://www.w3.org/2000/svg">
<path opacity="0.85" d="M59.6014 4.96975C58.0467 4.96975 56.8294 5.54698 55.7147 6.74698V5.24317H52.6494V19.9926H55.9494V11.4407C55.9494 9.48116 57.0787 8.25078 58.78 8.25078C59.088 8.25078 59.3667 8.29638 59.5574 8.32676L61.8454 5.21279C60.9507 5.04573 60.188 4.96975 59.6014 4.96975ZM88.0547 5.24317H84.256L80.736 10.0584L77.216 5.24317H73.4174L78.7854 12.6711L73.4174 19.9926H77.304L80.7214 15.3293L84.1387 19.9926H88.0547L82.6427 12.6862L88.0547 5.24317ZM18.7694 1.93182C17.64 3.49638 17.376 4.01279 16.2907 4.01279H0.0546875V24.0027H6.42002C7.85735 24.0027 9.25069 23.2888 10.1454 22.0888C11.304 20.4938 11.4654 20.0077 12.5947 20.0077H28.86V0.0179045H22.4507C21.0134 0.0179045 19.62 0.731818 18.7694 1.93182ZM23.8147 14.8432H17.024C15.5427 14.8432 14.1934 15.4812 13.2987 16.7268C12.14 18.3217 11.9054 18.8077 10.82 18.8077H5.05602V9.22296H11.8467C13.328 9.22296 14.6774 8.50899 15.572 7.30899C16.7307 5.74448 17.0534 5.27355 18.0947 5.27355H23.8V14.8432H23.8147ZM48.1907 9.92165C49.628 9.08622 50.64 7.59763 50.64 5.63812C50.64 2.76725 48.4987 0.00268555 45.404 0.00268555H36.0907V19.9926H45.3894C48.7627 19.9926 51.0947 17.5166 51.0947 14.4027C51.0947 12.5647 50.288 10.9697 48.1907 9.92165ZM39.376 3.13182H45.1254C46.5627 3.13182 47.4134 4.52926 47.4134 5.77486C47.4134 7.29383 46.1374 8.32676 44.9347 8.32676H39.376V3.13182ZM44.92 16.8787H39.376V11.4407H45.1254C46.6067 11.4407 47.8094 12.7622 47.8094 14.1141C47.7947 15.6331 46.284 16.8787 44.92 16.8787ZM70.1174 15.7546C69.5747 16.6356 68.5187 17.152 67.36 17.152C65.5414 17.152 64.016 15.8761 64.016 13.9166H73.872C74.0334 13.3242 74.0627 13.0356 74.0627 12.5192C74.0627 8.03812 71.3787 4.96975 67.3454 4.96975C63.3854 4.96975 60.584 7.88622 60.584 12.6407C60.584 17.2736 63.268 20.2812 67.4187 20.2812C70.3374 20.2812 72.8894 18.8077 73.6227 15.7697C73.652 15.7546 70.1174 15.7546 70.1174 15.7546ZM67.36 8.08372C69.1787 8.08372 70.5867 9.28372 70.5427 11.0761H64.06C64.06 9.32926 65.5414 8.08372 67.36 8.08372Z" fill="#434345"/>
</svg>
