<svg width="105" height="28" viewBox="0 0 105 28" fill="none" xmlns="http://www.w3.org/2000/svg">
<g opacity="0.85">
<path d="M46.4939 21.7186C46.6553 21.5656 46.8454 21.4461 47.0532 21.3668C47.261 21.2875 47.4823 21.25 47.7047 21.2565C47.9269 21.2629 48.1458 21.3132 48.3486 21.4044C48.5514 21.4957 48.7342 21.6261 48.8865 21.7882C49.1944 22.1161 49.3603 22.5527 49.3468 23.0023C49.3338 23.452 49.1436 23.8782 48.817 24.1878C46.2344 26.6434 42.8056 28.0105 39.2419 28.0053C35.7121 28.009 32.3135 26.668 29.7374 24.2548C29.4088 23.9475 29.2153 23.5224 29.1992 23.0727C29.1832 22.623 29.346 22.1852 29.652 21.8552C29.803 21.692 29.9848 21.5603 30.1869 21.4676C30.3891 21.3749 30.6075 21.3231 30.8298 21.3151C31.052 21.3072 31.2736 21.3433 31.4818 21.4213C31.6901 21.4993 31.8808 21.6178 32.0431 21.7698C33.9944 23.5971 36.5685 24.6125 39.2419 24.6096C41.9408 24.6129 44.5376 23.578 46.4939 21.7186ZM39.0725 3.3962C33.3915 3.3962 28.7532 7.85361 28.5147 13.5426L28.5083 13.6395L28.3195 15.5447C27.9454 18.9506 26.3344 22.1008 23.7921 24.3979C21.2335 26.7154 17.9041 27.9979 14.452 27.9958C12.5691 27.9958 10.7408 27.6267 9.02034 26.8964C7.36261 26.1925 5.85716 25.1738 4.58731 23.8966C3.31233 22.6206 2.297 21.1094 1.5975 19.4467C0.869856 17.7225 0.496638 15.8696 0.500023 13.9981C0.500023 12.1088 0.869179 10.2761 1.5975 8.54916C2.297 6.88646 3.31233 5.37519 4.58731 4.0992C5.88018 2.79905 7.41745 1.76753 9.11062 1.06397C10.8038 0.36047 12.6195 -0.00112577 14.453 2.63284e-06C18.1274 2.63284e-06 21.5977 1.4219 24.2203 4.0043C24.5411 4.3198 24.7238 4.74955 24.7285 5.1995C24.7331 5.64939 24.5593 6.08281 24.2452 6.40491C24.0898 6.5643 23.9044 6.69141 23.6998 6.77892C23.4951 6.86637 23.2752 6.91252 23.0526 6.91461C22.83 6.91676 22.6092 6.87484 22.4029 6.79128C22.1966 6.70772 22.0089 6.58416 21.8505 6.42776C19.8816 4.4802 17.2224 3.39022 14.453 3.3957C8.62591 3.3957 3.88584 8.15168 3.88584 13.9977C3.88584 19.8442 8.62591 24.6001 14.453 24.6001C19.8474 24.6001 24.3614 20.5521 24.9541 15.1806L25.1359 13.3508C25.2925 9.77048 26.8212 6.38782 29.4051 3.90444C32.0178 1.38709 35.4507 2.63284e-06 39.073 2.63284e-06C42.7494 2.63284e-06 46.2176 1.4219 48.8423 4.0043C49.5087 4.66058 49.5634 5.75902 48.9089 6.42872C48.3763 6.97425 47.5387 7.06666 46.8858 6.72831C46.7334 6.64983 46.5938 6.5485 46.472 6.42776C44.5025 4.48009 41.8428 3.39017 39.073 3.3957L39.0725 3.3962Z" fill="#434345"/>
<path d="M60.4985 10.0784C60.4974 10.0774 60.4963 10.0766 60.4946 10.076C60.4934 10.0755 60.4923 10.0753 60.4906 10.0753C60.4895 10.0753 60.4878 10.0755 60.4867 10.076C60.4855 10.0766 60.4844 10.0774 60.4833 10.0784C59.7137 10.8013 59.0124 11.2484 57.888 11.2484C56.1892 11.2484 54.909 9.86328 54.909 8.02557V7.99973C54.909 6.20027 56.2179 4.79033 57.888 4.79033C58.802 4.79033 59.5817 5.13907 60.4184 5.92155C60.4207 5.92404 60.4235 5.92556 60.4263 5.92556L60.4342 5.92155L61.4565 4.7342C61.4577 4.73318 61.4582 4.73205 61.4588 4.73075C61.4593 4.72951 61.4599 4.7281 61.4599 4.72675C61.4599 4.72534 61.4593 4.72398 61.4588 4.72269C61.4582 4.72139 61.4577 4.72026 61.4565 4.7193C60.7242 4.01529 59.7295 3.29492 57.9015 3.29492C56.5903 3.29492 55.3925 3.78922 54.5282 4.68601C53.6819 5.56188 53.2169 6.74777 53.2169 8.02557V8.05237C53.2169 9.33017 53.6852 10.5161 54.5349 11.3894C55.3914 12.2713 56.5638 12.7572 57.8372 12.7572C58.6474 12.7572 59.3425 12.6146 59.9614 12.32C60.5013 12.0626 60.9973 11.6871 61.5214 11.1366C61.5214 11.1366 61.5231 11.1345 61.5237 11.1332C61.5242 11.1319 61.5242 11.1305 61.5242 11.1291C61.5242 11.1278 61.5242 11.1264 61.5237 11.1251C61.5231 11.1238 61.5214 11.1217 61.5214 11.1217L60.4985 10.0784ZM76.7317 3.29492C75.4047 3.29492 74.1871 3.7917 73.3053 4.69493C72.4443 5.57531 71.9698 6.75866 71.9698 8.02653V8.05237C71.9698 9.32024 72.4387 10.4982 73.2912 11.3706C74.1657 12.2643 75.3793 12.7567 76.7052 12.7567C78.0338 12.7567 79.2497 12.2599 80.1332 11.3572C80.9936 10.4768 81.4681 9.29344 81.4681 8.02653V7.99973C81.4681 6.73288 80.9976 5.55392 80.1451 4.68099C79.2706 3.78724 78.0581 3.29492 76.7317 3.29492ZM73.6619 7.99973C73.6619 6.17048 74.9702 4.79033 76.7052 4.79033C78.4277 4.79033 79.7767 6.21217 79.7767 8.02653V8.05237C79.7767 9.87468 78.4666 11.2494 76.7317 11.2494C74.981 11.2494 73.6619 9.86277 73.6619 8.02653V7.99973ZM104.822 3.45143C104.829 3.45143 104.833 3.4564 104.833 3.46232V12.5903C104.833 12.5932 104.832 12.5959 104.83 12.598C104.828 12.6 104.825 12.6012 104.822 12.6012H103.489C103.486 12.6012 103.482 12.5997 103.48 12.5972L98.5036 6.12873V12.5903C98.5036 12.5957 98.4985 12.6012 98.4912 12.6012H96.9266C96.9193 12.6012 96.9148 12.5962 96.9148 12.5903V3.46283C96.9148 3.45735 96.9193 3.45188 96.9266 3.45188H98.402C98.4043 3.45188 98.4082 3.45341 98.4099 3.45589L103.246 9.74102V3.46283C103.246 3.45735 103.25 3.45188 103.256 3.45188L104.822 3.45143ZM68.5384 9.14088C69.9195 8.73449 70.6806 7.74985 70.6806 6.37021V6.34335C70.6806 5.56137 70.42 4.87778 69.9252 4.36752C69.317 3.7684 68.4109 3.45188 67.3033 3.45188H63.2642C63.2575 3.45188 63.2535 3.45589 63.2535 3.46283V12.5893C63.2535 12.5962 63.2575 12.6007 63.2642 12.6007H64.8558C64.8626 12.6007 64.8682 12.5962 64.8682 12.5898V9.41959H66.8446L69.067 12.5962C69.0698 12.5992 69.0721 12.6007 69.0766 12.6007H70.9678C70.9729 12.6007 70.9785 12.5962 70.9785 12.5898C70.9785 12.5868 70.9768 12.5828 70.9746 12.5818L68.5384 9.14088ZM64.8682 4.93392H67.1736C68.3601 4.93392 69.0394 5.48041 69.0394 6.43475V6.46211C69.0394 7.3812 68.3121 7.97637 67.1871 7.97637H64.8682V4.93392ZM95.4558 3.45143C95.4597 3.45143 95.4631 3.4529 95.4654 3.45538C95.4671 3.45939 95.4676 3.46232 95.4671 3.46633L92.3205 12.6593C92.3188 12.6633 92.3154 12.6658 92.3098 12.6658H90.9253C90.9202 12.6658 90.9162 12.6633 90.9145 12.6593L88.6989 6.1302L86.4827 12.6593C86.4816 12.6633 86.476 12.6658 86.472 12.6658H85.0993C85.0954 12.6658 85.0914 12.6633 85.0886 12.6593L81.9308 3.46633C81.9291 3.46232 81.9291 3.45939 81.9319 3.45538C81.933 3.45408 81.9342 3.45301 81.9359 3.45233C81.9375 3.45166 81.9392 3.45132 81.9409 3.45143H83.6629C83.6668 3.45143 83.6719 3.45391 83.6736 3.45939L85.8249 10.1941L88.0411 3.43253C88.0428 3.42858 88.0461 3.42559 88.0518 3.42559H89.398C89.4019 3.42559 89.407 3.42858 89.4081 3.43253L91.6237 10.1941L93.7761 3.45939C93.7773 3.45436 93.7812 3.45143 93.7852 3.45143H95.4558ZM67.7835 15.8002C67.7818 15.7962 67.7784 15.7932 67.7727 15.7932H66.2821C66.2799 15.7933 66.2782 15.794 66.2765 15.7953C66.2748 15.7965 66.2737 15.7982 66.2731 15.8002L62.2453 25.0856C62.2436 25.0891 62.2436 25.093 62.2453 25.0965C62.2475 25.101 62.2498 25.102 62.2543 25.102H63.9023C63.9063 25.102 63.9114 25.0995 63.913 25.0955L64.8513 22.8758H69.1658L70.0916 25.0955C70.0922 25.0974 70.0939 25.099 70.0956 25.1002C70.0972 25.1014 70.0989 25.102 70.1012 25.102H71.8023C71.8079 25.102 71.813 25.097 71.813 25.0915C71.813 25.0886 71.8118 25.0861 71.8102 25.0831L67.7835 15.8002ZM68.5677 21.4176H65.4482L67.0015 17.7695L68.5677 21.4176ZM78.9552 20.6898C79.4556 21.123 79.6988 21.6963 79.6988 22.4435V22.4694C79.6988 24.1491 78.4102 25.2341 76.4174 25.2341C74.99 25.2341 73.6669 24.7224 72.5921 23.7561C72.5871 23.7521 72.5871 23.7452 72.591 23.7402L73.5586 22.5811C73.5597 22.5781 73.5631 22.5772 73.5671 22.5772C73.5693 22.5772 73.5716 22.5781 73.575 22.5797C74.5223 23.4074 75.4126 23.7765 76.4563 23.7765C77.42 23.7765 78.0683 23.3144 78.0683 22.6279V22.601C78.0683 21.978 77.7596 21.6089 76.0095 21.2025C74.8884 20.9307 74.2136 20.6545 73.751 20.2834C73.2071 19.8467 72.9549 19.26 72.9549 18.4387V18.4134C72.9549 17.6473 73.2686 16.9592 73.839 16.4749C74.406 15.9929 75.2055 15.7276 76.0913 15.7276C77.3636 15.7276 78.453 16.1072 79.4195 16.8891C79.4235 16.8937 79.424 16.9001 79.4218 16.9041L78.5585 18.1292C78.558 18.1304 78.5569 18.1314 78.5557 18.1321C78.5546 18.1328 78.5535 18.1332 78.5518 18.1332C78.5478 18.1347 78.5456 18.1332 78.5422 18.1317C77.6953 17.4953 76.8851 17.1857 76.0648 17.1857C75.6179 17.1857 75.2399 17.2961 74.9731 17.5032C74.7231 17.697 74.5855 17.9693 74.5855 18.2678V18.2937C74.5855 19.0151 75.0526 19.3245 76.7593 19.7324C77.7969 19.9868 78.4942 20.2913 78.9552 20.6898ZM88.1612 15.8593C88.168 15.8593 88.172 15.8647 88.172 15.8702V17.3726C88.172 17.3775 88.168 17.3835 88.1612 17.3835H85.2691V25.0915C85.2691 25.0965 85.2641 25.1024 85.2584 25.1024H83.6375C83.6307 25.1024 83.6251 25.097 83.6251 25.0915V17.3835H80.733C80.7279 17.3835 80.7223 17.378 80.7223 17.3726V15.8702C80.7223 15.8652 80.7273 15.8593 80.733 15.8593H88.1612ZM104.81 23.6309C104.816 23.6309 104.819 23.6359 104.819 23.6413V25.0915C104.819 25.0965 104.816 25.102 104.81 25.102H97.9569C97.9552 25.102 97.954 25.1018 97.9529 25.1013C97.9512 25.1008 97.9501 25.1001 97.949 25.0991C97.9484 25.0981 97.9473 25.097 97.9467 25.0957C97.9461 25.0944 97.9462 25.093 97.9462 25.0915V15.8702C97.9462 15.8647 97.9501 15.8593 97.9569 15.8593H104.743C104.75 15.8593 104.754 15.8642 104.754 15.8702V17.3199C104.754 17.3249 104.75 17.3309 104.744 17.3309H99.5756V19.7056H104.156C104.161 19.7056 104.166 19.7105 104.166 19.716V21.1657C104.166 21.1712 104.161 21.1767 104.156 21.1767H99.575V23.6309H104.81ZM96.2823 23.6046C96.2897 23.6046 96.2936 23.6096 96.2936 23.6155V25.091C96.2936 25.0975 96.2897 25.1015 96.2823 25.1015H89.8606C89.8595 25.1015 89.8578 25.1013 89.8567 25.1008C89.855 25.1002 89.8538 25.0994 89.8527 25.0984C89.8521 25.0974 89.851 25.0962 89.8504 25.0948C89.8499 25.0935 89.8499 25.092 89.8499 25.0905V15.8707C89.8499 15.8642 89.8555 15.8588 89.8606 15.8588H91.4703C91.4765 15.8588 91.481 15.8638 91.481 15.8707V23.6046H96.2823ZM60.5707 22.5538C60.5696 22.5528 60.5685 22.552 60.5673 22.5515C60.5662 22.551 60.5645 22.5507 60.5634 22.5507C60.5617 22.5507 60.5606 22.551 60.5594 22.5515C60.5578 22.552 60.5566 22.5528 60.5561 22.5538C59.7786 23.2836 59.0705 23.7362 57.9342 23.7362C56.2191 23.7362 54.9242 22.3372 54.9242 20.4806V20.4538C54.9242 18.6365 56.2473 17.2121 57.9342 17.2121C58.8578 17.2121 59.6449 17.5648 60.4906 18.3548C60.4923 18.3567 60.4946 18.3578 60.4985 18.3578C60.5013 18.3578 60.5036 18.3567 60.507 18.3538L61.54 17.156C61.5423 17.1505 61.5423 17.1435 61.5383 17.1395C60.7992 16.4291 59.795 15.7018 57.9472 15.7018C56.6242 15.7018 55.4134 16.2001 54.5389 17.1058C53.6864 17.9916 53.2158 19.1899 53.2158 20.4806V20.5065C53.2158 21.7986 53.6881 22.9955 54.5462 23.8783C55.4117 24.7696 56.5965 25.2595 57.8823 25.2595C58.7015 25.2595 59.4028 25.1154 60.0285 24.8183C60.5736 24.5584 61.0751 24.1789 61.6043 23.6229C61.6043 23.6229 61.606 23.6208 61.6066 23.6195C61.6072 23.6182 61.6072 23.6169 61.6072 23.6155C61.6072 23.6141 61.6072 23.6127 61.6066 23.6115C61.606 23.6102 61.6043 23.608 61.6043 23.608L60.5707 22.5538Z" fill="#171717"/>
</g>
</svg>
