<svg width="27" height="27" viewBox="0 0 27 27" fill="none" xmlns="http://www.w3.org/2000/svg">
<path d="M13.4893 26.4902C10.9488 26.4902 8.46541 25.7369 6.35311 24.3255C4.24081 22.9141 2.59447 20.908 1.62228 18.561C0.650096 16.2139 0.395729 13.6313 0.891345 11.1396C1.38696 8.64799 2.6103 6.35929 4.40667 4.56292C6.20304 2.76655 8.49174 1.54321 10.9834 1.04759C13.475 0.551979 16.0576 0.806346 18.4047 1.77853C20.7518 2.75072 22.7578 4.39706 24.1692 6.50936C25.5806 8.62166 26.334 11.1051 26.334 13.6455C26.33 17.0509 24.9755 20.3157 22.5675 22.7237C20.1595 25.1317 16.8947 26.4863 13.4893 26.4902ZM13.4893 2.18056C11.2217 2.18056 9.00507 2.85296 7.11967 4.11274C5.23426 5.37253 3.76477 7.16311 2.89702 9.25806C2.02926 11.353 1.80222 13.6582 2.2446 15.8822C2.68698 18.1062 3.7789 20.149 5.38231 21.7524C6.98571 23.3558 9.02857 24.4478 11.2525 24.8902C13.4765 25.3325 15.7818 25.1055 17.8767 24.2377C19.9717 23.37 21.7622 21.9005 23.022 20.0151C24.2818 18.1297 24.9542 15.9131 24.9542 13.6455C24.9507 10.606 23.7416 7.69195 21.5922 5.54275C19.4429 3.39355 16.5288 2.18467 13.4893 2.18134V2.18056Z" fill="#171717"/>
<path fill-rule="evenodd" clip-rule="evenodd" d="M11.4748 13.7061V21.1506C11.4748 21.202 11.4952 21.2513 11.5315 21.2876C11.5679 21.324 11.6171 21.3444 11.6685 21.3444H14.4328C14.4842 21.3444 14.5334 21.324 14.5698 21.2876C14.6061 21.2513 14.6265 21.202 14.6265 21.1506V13.5848H16.6308C16.6793 13.5848 16.726 13.5666 16.7617 13.5337C16.7975 13.5009 16.8196 13.4559 16.8237 13.4076L17.0167 11.1277C17.0189 11.1009 17.0155 11.074 17.0067 11.0486C16.998 11.0232 16.9841 10.9999 16.9659 10.9801C16.9477 10.9604 16.9256 10.9446 16.901 10.9338C16.8764 10.923 16.8498 10.9174 16.8229 10.9174H14.6257V9.30059C14.6257 9.1186 14.698 8.94404 14.8266 8.81528C14.9552 8.68651 15.1297 8.61407 15.3117 8.61386H16.8568C16.9082 8.61386 16.9575 8.59345 16.9938 8.55712C17.0301 8.52079 17.0505 8.47151 17.0505 8.42013V6.141C17.0505 6.08962 17.0301 6.04034 16.9938 6.00401C16.9575 5.96768 16.9082 5.94727 16.8568 5.94727H14.2469C13.8826 5.94716 13.5219 6.01883 13.1853 6.15819C12.8488 6.29754 12.543 6.50185 12.2854 6.75944C12.0278 7.01702 11.8235 7.32282 11.6841 7.65939C11.5448 7.99596 11.4731 8.35669 11.4732 8.72097V10.9182H10.0927C10.0413 10.9182 9.992 10.9386 9.95567 10.9749C9.91934 11.0113 9.89893 11.0605 9.89893 11.1119V13.3918C9.89893 13.4432 9.91934 13.4925 9.95567 13.5288C9.992 13.5652 10.0413 13.5856 10.0927 13.5856H11.4748V13.7061Z" fill="#171717"/>
</svg>
