<svg width="26" height="27" viewBox="0 0 26 27" fill="none" xmlns="http://www.w3.org/2000/svg">
<path d="M13.0359 26.3223C10.5126 26.3223 8.04596 25.5741 5.94791 24.1722C3.84985 22.7703 2.21461 20.7778 1.24898 18.4466C0.283352 16.1153 0.03071 13.5501 0.522984 11.0753C1.01526 8.60044 2.23034 6.32717 4.01459 4.54292C5.79884 2.75867 8.07212 1.54357 10.5469 1.0513C13.0218 0.559027 15.587 0.811681 17.9182 1.77731C20.2495 2.74294 22.242 4.37818 23.6439 6.47624C25.0458 8.57429 25.794 11.0409 25.794 13.5642C25.7894 16.9465 24.4438 20.1889 22.0522 22.5805C19.6606 24.9721 16.4182 26.3177 13.0359 26.3223ZM13.0359 2.01266C10.7519 2.01282 8.5192 2.69025 6.62018 3.95931C4.72115 5.22836 3.24108 7.03203 2.36713 9.14225C1.49317 11.2525 1.26458 13.5744 1.71027 15.8146C2.15596 18.0547 3.25591 20.1123 4.87102 21.7273C6.48612 23.3423 8.54386 24.4421 10.784 24.8877C13.0242 25.3332 15.3461 25.1045 17.4563 24.2304C19.5664 23.3563 21.37 21.8761 22.6389 19.977C23.9079 18.0779 24.5851 15.8451 24.5851 13.5611C24.5816 10.4992 23.3636 7.56376 21.1985 5.39876C19.0333 3.23375 16.0978 2.016 13.0359 2.01266ZM17.339 8.38383C17.1521 8.38383 16.9694 8.43925 16.814 8.5431C16.6586 8.64694 16.5374 8.79454 16.4659 8.96722C16.3944 9.1399 16.3757 9.32992 16.4121 9.51324C16.4486 9.69656 16.5386 9.86496 16.6708 9.99712C16.8029 10.1293 16.9713 10.2193 17.1546 10.2558C17.338 10.2922 17.528 10.2735 17.7007 10.202C17.8734 10.1304 18.021 10.0093 18.1248 9.85391C18.2286 9.69849 18.2841 9.51579 18.2841 9.32888C18.2841 9.07824 18.1845 8.83785 18.0073 8.66062C17.83 8.48339 17.5897 8.38383 17.339 8.38383ZM13.1415 9.59664C12.3569 9.59664 11.5899 9.82928 10.9376 10.2652C10.2853 10.701 9.77683 11.3206 9.47659 12.0454C9.17635 12.7703 9.0978 13.5679 9.25086 14.3373C9.40392 15.1068 9.78171 15.8137 10.3365 16.3684C10.8913 16.9232 11.5981 17.301 12.3676 17.4541C13.137 17.6071 13.9346 17.5286 14.6595 17.2283C15.3843 16.9281 16.0039 16.4196 16.4397 15.7673C16.8756 15.115 17.1083 14.348 17.1083 13.5635C17.107 12.5118 16.6887 11.5035 15.945 10.7599C15.2014 10.0162 14.1931 9.59789 13.1415 9.59664ZM13.1415 16.1048C12.639 16.1048 12.1478 15.9558 11.73 15.6767C11.3122 15.3975 10.9865 15.0007 10.7943 14.5365C10.602 14.0723 10.5516 13.5614 10.6497 13.0686C10.7477 12.5758 10.9897 12.1231 11.345 11.7678C11.7003 11.4125 12.153 11.1705 12.6458 11.0725C13.1386 10.9744 13.6495 11.0247 14.1137 11.217C14.5779 11.4093 14.9747 11.735 15.2539 12.1528C15.533 12.5706 15.682 13.0618 15.682 13.5642C15.6806 14.2374 15.4124 14.8825 14.9362 15.3583C14.46 15.834 13.8146 16.1016 13.1415 16.1025V16.1048ZM21.1452 10.2668C21.145 8.98368 20.6351 7.75317 19.7277 6.84592C18.8203 5.93867 17.5897 5.42899 16.3066 5.42899H9.92122C8.63821 5.4292 7.40781 5.93897 6.50058 6.8462C5.59336 7.75342 5.08359 8.98382 5.08338 10.2668V16.653C5.08359 17.936 5.59336 19.1664 6.50058 20.0736C7.40781 20.9808 8.63821 21.4906 9.92122 21.4908H16.3066C17.5897 21.4908 18.8203 20.9811 19.7277 20.0739C20.6351 19.1666 21.145 17.9361 21.1452 16.653V10.2668ZM19.63 16.653C19.63 17.0894 19.544 17.5215 19.377 17.9247C19.2099 18.3278 18.9651 18.6941 18.6565 19.0027C18.3479 19.3112 17.9815 19.556 17.5783 19.7229C17.1751 19.8898 16.743 19.9757 16.3066 19.9756H9.92122C9.04 19.9756 8.19488 19.6255 7.57177 19.0024C6.94866 18.3793 6.59861 17.5342 6.59861 16.653V10.2668C6.59861 9.38562 6.94866 8.54049 7.57177 7.91738C8.19488 7.29427 9.04 6.94422 9.92122 6.94422H16.3066C16.743 6.94412 17.1751 7.02998 17.5783 7.19691C17.9815 7.36384 18.3479 7.60856 18.6565 7.9171C18.9651 8.22565 19.2099 8.59197 19.377 8.99513C19.544 9.3983 19.63 9.83043 19.63 10.2668V16.653Z" fill="#171717"/>
</svg>
