<svg width="27" height="27" viewBox="0 0 27 27" fill="none" xmlns="http://www.w3.org/2000/svg">
<path d="M13.7642 26.447C11.2279 26.4471 8.74855 25.6952 6.63964 24.2862C4.53073 22.8772 2.887 20.8746 1.9163 18.5314C0.945601 16.1882 0.691544 13.6098 1.18625 11.1223C1.68096 8.6347 2.90221 6.34972 4.69557 4.55625C6.48893 2.76278 8.77385 1.54137 11.2614 1.04651C13.7489 0.551653 16.3273 0.80555 18.6705 1.7761C21.0138 2.74666 23.0166 4.39029 24.4257 6.49911C25.8348 8.60793 26.5869 11.0872 26.5869 13.6235C26.5833 17.0233 25.2312 20.2828 22.8273 22.6869C20.4234 25.0909 17.164 26.4432 13.7642 26.447ZM13.7642 2.18061C11.501 2.18061 9.28863 2.85172 7.40686 4.10908C5.52508 5.36644 4.05842 7.15359 3.19233 9.2445C2.32625 11.3354 2.09964 13.6362 2.54116 15.8559C2.98269 18.0756 4.07252 20.1145 5.67284 21.7149C7.27316 23.3152 9.31208 24.405 11.5318 24.8465C13.7515 25.2881 16.0523 25.0614 18.1432 24.1954C20.2341 23.3293 22.0213 21.8626 23.2786 19.9808C24.536 18.0991 25.2071 15.8867 25.2071 13.6235C25.2035 10.5898 23.9968 7.68127 21.8516 5.53608C19.7064 3.39089 16.7979 2.18416 13.7642 2.18061Z" fill="#171717"/>
<path d="M21.0159 14.6008V19.3883C21.016 19.4164 21.0105 19.4443 20.9998 19.4704C20.9891 19.4964 20.9733 19.5201 20.9534 19.54C20.9335 19.5599 20.9098 19.5757 20.8838 19.5864C20.8578 19.5971 20.8299 19.6026 20.8017 19.6025H18.3296C18.2728 19.6025 18.2183 19.5799 18.1782 19.5397C18.138 19.4996 18.1154 19.4451 18.1154 19.3883V14.9356C18.1154 13.7637 17.6972 12.9667 16.6467 12.9667C16.3198 12.9687 16.0015 13.0716 15.7354 13.2613C15.4692 13.451 15.2682 13.7184 15.1598 14.0267C15.0849 14.2552 15.0524 14.4954 15.0637 14.7355V19.393C15.0637 19.4212 15.0581 19.4491 15.0473 19.4752C15.0365 19.5012 15.0207 19.5249 15.0007 19.5448C14.9807 19.5647 14.957 19.5804 14.9309 19.5911C14.9048 19.6018 14.8769 19.6073 14.8487 19.6072H12.3782C12.3501 19.6073 12.3221 19.6019 12.2961 19.5911C12.2701 19.5804 12.2464 19.5646 12.2265 19.5447C12.2066 19.5248 12.1908 19.5012 12.1801 19.4751C12.1694 19.4491 12.1639 19.4212 12.164 19.393C12.1695 18.207 12.1947 12.4532 12.1695 11.101C12.169 11.0726 12.1741 11.0444 12.1847 11.018C12.1952 10.9916 12.2109 10.9675 12.2309 10.9473C12.2508 10.927 12.2746 10.911 12.3009 10.9001C12.3271 10.8891 12.3553 10.8836 12.3837 10.8837H14.8495C14.8777 10.8837 14.9056 10.8892 14.9317 10.9001C14.9577 10.9109 14.9813 10.9267 15.0012 10.9467C15.0212 10.9667 15.0369 10.9904 15.0476 11.0165C15.0583 11.0425 15.0638 11.0705 15.0637 11.0987V12.1225C15.0574 12.1327 15.0495 12.1422 15.044 12.1508H15.0637V12.113C15.3262 11.6569 15.7086 11.2815 16.1694 11.0274C16.6302 10.7733 17.1518 10.6503 17.6775 10.6718C19.5857 10.6718 21.0159 11.9185 21.0159 14.5977V14.6008ZM7.87193 19.6025H10.3432C10.4 19.6025 10.4545 19.5799 10.4947 19.5397C10.5349 19.4996 10.5574 19.4451 10.5574 19.3883V11.0939C10.5575 11.0657 10.5521 11.0378 10.5413 11.0117C10.5306 10.9857 10.5149 10.9619 10.495 10.942C10.4751 10.922 10.4514 10.9061 10.4254 10.8953C10.3993 10.8845 10.3714 10.879 10.3432 10.879H7.87193C7.84373 10.879 7.81581 10.8845 7.78977 10.8953C7.76373 10.9061 7.74008 10.922 7.72018 10.942C7.70028 10.9619 7.68451 10.9857 7.67379 11.0117C7.66308 11.0378 7.65761 11.0657 7.65772 11.0939V19.3883C7.65772 19.4451 7.68028 19.4996 7.72046 19.5397C7.76063 19.5799 7.81512 19.6025 7.87193 19.6025Z" fill="#171717"/>
<path d="M9.02001 9.77048C9.87728 9.77048 10.5722 9.07552 10.5722 8.21825C10.5722 7.36097 9.87728 6.66602 9.02001 6.66602C8.16273 6.66602 7.46777 7.36097 7.46777 8.21825C7.46777 9.07552 8.16273 9.77048 9.02001 9.77048Z" fill="#171717"/>
</svg>
