<svg width="93" height="26" viewBox="0 0 93 26" fill="none" xmlns="http://www.w3.org/2000/svg">
<g opacity="0.85">
<path d="M29.8624 5.72339C29.6732 5.72339 29.5124 5.8601 29.4828 6.04629L27.2919 19.8715C27.2839 19.922 27.287 19.9737 27.301 20.0229C27.315 20.0721 27.3396 20.1176 27.373 20.1565C27.4064 20.1953 27.4478 20.2265 27.4945 20.2479C27.5411 20.2693 27.5919 20.2804 27.6433 20.2804H30.2415C30.4305 20.2804 30.5916 20.1434 30.6212 19.9575L31.2648 15.8976C31.2941 15.7117 31.4551 15.5747 31.6444 15.5747H34.0066C36.7667 15.5747 39.1098 13.5708 39.5377 10.8555C39.9692 8.11714 37.8193 5.72931 34.7722 5.72339H29.8624ZM32.3882 8.80971H34.2782C35.8343 8.80971 36.341 9.72329 36.1807 10.7336C36.0206 11.7461 35.2336 12.4919 33.7283 12.4919H31.8046L32.3882 8.80971ZM44.8222 9.74947C44.1662 9.75196 43.4112 9.88567 42.5637 10.237C40.6196 11.0433 39.686 12.7096 39.2895 13.9245C39.2895 13.9245 38.0276 17.631 40.8787 19.6673C40.8787 19.6673 43.5228 21.6277 46.4994 19.5465L46.448 19.8715C46.4401 19.922 46.4432 19.9736 46.4572 20.0227C46.4712 20.0719 46.4956 20.1174 46.5289 20.1563C46.5623 20.1951 46.6037 20.2263 46.6502 20.2478C46.6968 20.2691 46.7476 20.2803 46.7989 20.2804H49.2654C49.4547 20.2804 49.6155 20.1434 49.6451 19.9575L51.1453 10.4899C51.1532 10.4394 51.1504 10.3878 51.1363 10.3385C51.1227 10.2893 51.0979 10.2437 51.0646 10.2048C51.0313 10.1659 50.9901 10.1346 50.9433 10.1132C50.8965 10.0917 50.8457 10.0806 50.7944 10.0805H48.3281C48.1388 10.0805 47.9777 10.2175 47.9484 10.4034L47.8678 10.913C47.8678 10.913 46.7907 9.7422 44.8222 9.74947ZM44.9029 12.7399C45.1861 12.7399 45.4452 12.7788 45.6776 12.8531C46.7419 13.1931 47.3452 14.2104 47.1707 15.3131C46.9553 16.6709 45.8362 17.6707 44.401 17.6707C44.1181 17.6707 43.859 17.632 43.6263 17.5577C42.5623 17.2178 41.9552 16.2005 42.1297 15.0977C42.3451 13.74 43.4677 12.7399 44.9029 12.7399Z" fill="#434345"/>
<path d="M65.3825 5.72339C65.1929 5.72339 65.0321 5.8601 65.0028 6.04629L62.812 19.8715C62.8041 19.922 62.8069 19.9737 62.821 20.0229C62.8351 20.0721 62.8594 20.1176 62.8932 20.1565C62.9265 20.1953 62.9677 20.2265 63.0145 20.2479C63.0613 20.2693 63.1121 20.2804 63.1635 20.2804H65.7617C65.9507 20.2804 66.1115 20.1434 66.1414 19.9575L66.7846 15.8976C66.814 15.7117 66.9753 15.5747 67.1643 15.5747H69.5267C72.2869 15.5747 74.6295 13.5708 75.0572 10.8555C75.4888 8.11714 73.3391 5.72931 70.2923 5.72339H65.3825ZM67.908 8.80971H69.7981C71.3542 8.80971 71.8609 9.72329 71.7006 10.7336C71.5404 11.7461 70.7539 12.4919 69.2485 12.4919H67.3246L67.908 8.80971ZM80.3422 9.74947C79.686 9.75196 78.9311 9.88567 78.0836 10.237C76.1393 11.0433 75.2055 12.7096 74.8095 13.9245C74.8095 13.9245 73.5479 17.631 76.3989 19.6673C76.3989 19.6673 79.0428 21.6277 82.0196 19.5465L81.9683 19.8715C81.9598 19.922 81.9632 19.9737 81.9773 20.0229C81.9914 20.0721 82.0157 20.1176 82.0489 20.1565C82.0828 20.1953 82.124 20.2265 82.1708 20.2479C82.2171 20.2693 82.2679 20.2804 82.3192 20.2804H84.786C84.975 20.2804 85.1358 20.1434 85.1651 19.9575L86.6665 10.4899C86.6744 10.4393 86.671 10.3877 86.6575 10.3384C86.6434 10.2891 86.6185 10.2435 86.5852 10.2046C86.552 10.1657 86.5108 10.1344 86.4639 10.113C86.4171 10.0916 86.3663 10.0805 86.315 10.0805H83.8482C83.6592 10.0805 83.4978 10.2175 83.4685 10.4034L83.3878 10.913C83.3878 10.913 82.3107 9.7422 80.3422 9.74947ZM80.4229 12.7399C80.7061 12.7399 80.9651 12.7788 81.1975 12.8531C82.2617 13.1931 82.8648 14.2104 82.6905 15.3131C82.4749 16.6709 81.3561 17.6707 79.9207 17.6707C79.638 17.6707 79.3785 17.632 79.146 17.5577C78.0819 17.2178 77.4748 16.2005 77.6497 15.0977C77.8647 13.74 78.9875 12.7399 80.4229 12.7399Z" fill="#434345"/>
<path d="M52.3162 10.0806C52.1204 10.0806 51.9816 10.2706 52.0414 10.4556L54.7451 18.8054L52.3004 22.7402C52.1813 22.9312 52.3195 23.1779 52.5452 23.1779H55.4351C55.5175 23.1778 55.5988 23.1566 55.671 23.1162C55.7426 23.0757 55.803 23.0175 55.8459 22.9472L63.3979 10.5156C63.5142 10.3246 63.3754 10.0803 63.1514 10.0803H60.2615C60.1785 10.0804 60.0961 10.1021 60.0239 10.1432C59.9511 10.1844 59.8908 10.2437 59.8485 10.3151L56.8756 15.3091L55.3669 10.3522C55.3172 10.1909 55.1677 10.0803 54.9984 10.0803L52.3162 10.0806Z" fill="#434345"/>
<path d="M89.4684 5.72339C89.2794 5.72339 89.1186 5.86038 89.0893 6.04629L86.8973 19.871C86.8894 19.9216 86.8928 19.9732 86.9063 20.0225C86.9204 20.0717 86.9452 20.1174 86.9785 20.1563C87.0118 20.1952 87.053 20.2265 87.0998 20.2479C87.1467 20.2693 87.1974 20.2804 87.2488 20.2804H89.847C90.036 20.2804 90.1974 20.1434 90.2267 19.9575L92.4176 6.13222C92.4255 6.08172 92.4226 6.03015 92.4085 5.98101C92.3944 5.93187 92.3702 5.88633 92.3369 5.84746C92.3036 5.80864 92.2618 5.77744 92.2156 5.756C92.1687 5.73462 92.118 5.72345 92.0666 5.72339H89.4684Z" fill="#434345"/>
<path opacity="0.8" d="M8.20191 5.72339C8.03451 5.7235 7.87269 5.78303 7.74546 5.89124C7.61823 5.99946 7.53393 6.14932 7.50775 6.31379L6.35449 13.5921C6.40826 13.2522 6.70261 13.0017 7.04859 13.0017H10.4281C13.8294 13.0017 16.7154 10.5328 17.2428 7.18708C17.2821 6.9373 17.3043 6.68515 17.3094 6.43238C16.445 5.9814 15.4296 5.72339 14.3171 5.72339H8.20191Z" fill="#434345"/>
<path opacity="0.5" d="M17.3092 6.43286C17.3042 6.68563 17.2819 6.93778 17.2427 7.18756C16.7153 10.5333 13.8289 13.0022 10.4279 13.0022H7.04838C6.70269 13.0022 6.40811 13.2524 6.35434 13.5926L5.29389 20.2808L4.62964 24.4766C4.61666 24.5577 4.62157 24.6406 4.64392 24.7197C4.66626 24.7986 4.70559 24.8719 4.75919 24.9343C4.81273 24.9967 4.87925 25.0468 4.95418 25.0812C5.02911 25.1156 5.11064 25.1333 5.19312 25.1333H8.86133C9.02873 25.1331 9.19055 25.0736 9.31778 24.9654C9.44501 24.8571 9.52925 24.7073 9.55543 24.5429L10.5216 18.445C10.5478 18.2805 10.6322 18.1306 10.7595 18.0223C10.8868 17.9141 11.0488 17.8546 11.2163 17.8546H13.376C16.7772 17.8546 19.6633 15.3857 20.1907 12.04C20.5652 9.66538 19.3633 7.50454 17.3092 6.43286Z" fill="#434345"/>
<path d="M4.03425 0.871826C3.68855 0.871826 3.39392 1.12206 3.34015 1.46172L0.461682 19.6241C0.407066 19.9689 0.674843 20.2807 1.02567 20.2807H5.29431L6.3542 13.5925L7.50746 6.3141C7.53364 6.14963 7.61793 5.99983 7.74516 5.89161C7.87239 5.78339 8.03421 5.72387 8.20156 5.7237H14.3168C15.4296 5.7237 16.4447 5.98205 17.309 6.43275C17.3683 3.38666 14.8422 0.871826 11.3693 0.871826H4.03425Z" fill="#434345"/>
</g>
</svg>
