<svg width="26" height="27" viewBox="0 0 26 27" fill="none" xmlns="http://www.w3.org/2000/svg">
<path d="M13.1157 26.4902C10.5753 26.4902 8.09188 25.7369 5.97958 24.3255C3.86727 22.9141 2.22093 20.908 1.24875 18.561C0.276561 16.2139 0.0221936 13.6313 0.51781 11.1396C1.01343 8.64799 2.23677 6.35929 4.03313 4.56292C5.8295 2.76655 8.11821 1.54321 10.6098 1.04759C13.1015 0.551979 15.6841 0.806346 18.0312 1.77853C20.3782 2.75072 22.3843 4.39706 23.7957 6.50936C25.2071 8.62166 25.9604 11.1051 25.9604 13.6455C25.9567 17.051 24.6022 20.3159 22.1942 22.7239C19.7861 25.132 16.5212 26.4865 13.1157 26.4902ZM13.1157 2.18056C10.8482 2.18056 8.63153 2.85296 6.74613 4.11274C4.86073 5.37253 3.39124 7.16311 2.52348 9.25806C1.65573 11.353 1.42868 13.6582 1.87106 15.8822C2.31344 18.1062 3.40537 20.149 5.00877 21.7524C6.61217 23.3558 8.65503 24.4478 10.879 24.8902C13.103 25.3325 15.4082 25.1055 17.5032 24.2377C19.5981 23.37 21.3887 21.9005 22.6485 20.0151C23.9083 18.1297 24.5807 15.9131 24.5807 13.6455C24.5771 10.606 23.3681 7.69195 21.2187 5.54275C19.0694 3.39355 16.1553 2.18467 13.1157 2.18134V2.18056Z" fill="#171717"/>
<path d="M20.4981 8.95733C20.0147 9.16564 19.5065 9.31095 18.986 9.38969C19.2302 9.34874 19.5893 8.90772 19.7326 8.72973C19.9567 8.45866 20.1274 8.14762 20.2358 7.81304C20.2492 7.78705 20.2587 7.75398 20.2358 7.73429C20.2232 7.7289 20.2094 7.72665 20.1957 7.72774C20.182 7.72884 20.1687 7.73325 20.1571 7.74059C19.5893 8.04373 18.9858 8.27469 18.3607 8.42811C18.3391 8.43486 18.316 8.43534 18.2941 8.42948C18.2722 8.42363 18.2524 8.41168 18.2371 8.39503C18.1887 8.33858 18.136 8.28592 18.0796 8.23752C17.8213 8.01445 17.5288 7.83442 17.2133 7.70436C16.7902 7.53308 16.3339 7.45959 15.8784 7.48937C15.436 7.51925 15.0047 7.64102 14.6121 7.8469C14.2175 8.0526 13.8692 8.33666 13.5883 8.68169C13.2982 9.0394 13.0902 9.45635 12.9787 9.90317C12.8836 10.3269 12.8726 10.7652 12.9464 11.1932C12.9566 11.2648 12.9464 11.2719 12.885 11.2648C10.5079 11.0226 8.30675 9.9021 6.71227 8.12255C6.64061 8.04379 6.60123 8.04379 6.54216 8.12884C6.22087 8.72108 6.09929 9.4012 6.19549 10.0681C6.29169 10.7349 6.60054 11.353 7.07611 11.8303C7.19739 11.9445 7.32104 12.0594 7.45571 12.1642C7.04029 12.1331 6.63522 12.0196 6.26416 11.8303C6.1925 11.7846 6.15627 11.8106 6.14997 11.8925C6.14505 12.0107 6.15137 12.1291 6.16887 12.2461C6.24208 12.8011 6.46122 13.3268 6.80392 13.7696C7.14661 14.2123 7.60061 14.5562 8.1196 14.7662C8.24588 14.8213 8.37797 14.862 8.51337 14.8875C8.12879 14.9644 7.73406 14.9767 7.34545 14.9237C7.2604 14.9072 7.22811 14.9497 7.2604 15.0316C7.46024 15.555 7.79062 16.0186 8.22013 16.3784C8.64963 16.7382 9.16401 16.9821 9.71436 17.0871C9.82619 17.1068 9.93723 17.1068 10.0483 17.1327C10.042 17.143 10.0349 17.143 10.0286 17.1524C9.55182 17.5823 8.97608 17.8875 8.35271 18.0408C7.53742 18.3317 6.66889 18.4429 5.8066 18.3668C5.66957 18.3463 5.64122 18.3479 5.60342 18.3668C5.56562 18.3857 5.5987 18.4227 5.6428 18.4582C5.81606 18.5731 5.99325 18.6747 6.17281 18.7732C6.71358 19.0616 7.28426 19.29 7.87467 19.4544C9.39331 19.9111 11.0052 19.9615 12.5494 19.6004C14.0936 19.2393 15.516 18.4794 16.6746 17.3966C17.5088 16.4925 18.1541 15.4309 18.5723 14.2741C18.9906 13.1173 19.1736 11.8885 19.1105 10.66C19.1105 10.5631 19.2246 10.5096 19.2932 10.4584C19.7492 10.1034 20.1509 9.68367 20.4855 9.2125C20.5369 9.14481 20.5629 9.06115 20.5587 8.97624V8.96285C20.554 8.91796 20.5595 8.93056 20.4981 8.95733Z" fill="#171717"/>
<path fill-rule="evenodd" clip-rule="evenodd" d="M10.5332 19.7724C10.5332 19.7472 10.7978 19.7724 10.5332 19.7724C10.5332 19.759 10.5655 19.7724 10.5332 19.7724Z" fill="#171717"/>
<path fill-rule="evenodd" clip-rule="evenodd" d="M15.828 7.4978C15.8191 7.50422 15.8083 7.50766 15.7973 7.50766C15.7863 7.50766 15.7756 7.50422 15.7666 7.4978H15.828Z" fill="#171717"/>
</svg>
