<svg width="54" height="37" viewBox="0 0 54 37" fill="none" xmlns="http://www.w3.org/2000/svg">
<path fill-rule="evenodd" clip-rule="evenodd" d="M52.2724 31.2113C52.1582 31.0549 52.022 30.967 51.8194 31.0017C51.7183 31.0148 51.6164 31.0215 51.5144 31.0218C50.2331 31.079 48.9517 31.1286 47.6689 31.1341C46.3861 31.1397 45.1068 31.1218 43.8267 31.0604C42.865 31.0143 41.9061 30.937 40.9482 30.8428C39.8751 30.7352 38.8074 30.5884 37.7449 30.4024C36.631 30.2076 35.5275 29.9642 34.4344 29.6724C33.1553 29.3315 31.8984 28.9127 30.6705 28.4184C29.5378 27.9629 28.4366 27.4326 27.3743 26.831C27.1427 26.6992 26.9148 26.5605 26.6713 26.417L27.4118 25.9534C29.0957 24.9069 30.6902 23.723 32.1791 22.4138C33.7202 21.0609 35.1015 19.5362 36.296 17.8693C37.0803 16.7675 37.7396 15.6014 38.1905 14.3224C38.6937 12.8953 38.9449 11.4352 38.769 9.91971C38.66 8.87613 38.3069 7.87284 37.7383 6.99099C37.1085 6.02129 36.2666 5.28356 35.2506 4.73931C34.5986 4.38828 33.8913 4.15132 33.1593 4.03867C32.4251 3.92376 31.6757 3.95136 30.9519 4.11997C29.7509 4.39991 28.7114 4.96152 27.8568 5.85778C27.6759 6.05688 27.5065 6.26618 27.3494 6.48462C27.3059 6.45634 27.3088 6.41639 27.3002 6.38348C27.1789 5.84337 27.0009 5.3176 26.769 4.81493C26.0923 3.35244 25.088 2.19233 23.6209 1.48246C22.4505 0.900893 21.1127 0.749999 19.8421 1.05625C18.7976 1.29833 17.9013 1.82572 17.0995 2.51781C15.7269 3.70403 14.8811 5.214 14.4014 6.94411C14.1425 7.89067 14.0041 8.86613 13.9895 9.84735C13.973 10.602 14.0251 11.3566 14.1451 12.1019C14.3737 13.5017 14.839 14.8253 15.4617 16.0968C15.9932 17.1698 16.6289 18.188 17.3597 19.1366C18.2415 20.2785 19.2173 21.3446 20.277 22.3236C21.398 23.3636 22.5757 24.3408 23.8046 25.2506C24.2264 25.5651 24.6538 25.8695 25.0865 26.1846C25.0331 26.2168 24.9841 26.247 24.9347 26.2755C23.6378 27.0231 22.3161 27.7239 20.9695 28.3779C19.5714 29.0571 18.1495 29.6819 16.704 30.2523C15.1306 30.87 13.534 31.421 11.9199 31.9221C10.8449 32.2562 9.76339 32.5701 8.67532 32.8635C7.61185 33.1496 6.54471 33.4228 5.47039 33.6676C4.61256 33.8636 3.75465 34.0613 2.89543 34.2529C2.32503 34.38 1.75203 34.4949 1.18124 34.6192C0.987531 34.6632 0.932858 34.7458 0.96021 34.9424C0.976218 35.0678 1.01849 35.1883 1.08426 35.2962C1.15002 35.404 1.23781 35.4968 1.34188 35.5684L1.50182 35.5775C1.51105 35.5698 1.51943 35.5576 1.52999 35.5554C2.02338 35.4493 2.51734 35.3426 3.01116 35.2386C4.02489 35.0255 5.03424 34.793 6.04228 34.5544C7.53588 34.2021 9.02075 33.8164 10.4969 33.3973C11.8494 33.0132 13.1918 32.5946 14.5241 32.1413C16.0598 31.6145 17.573 31.0291 19.0637 30.3851C20.4121 29.8019 21.7378 29.1706 23.0407 28.4911C24.0066 27.987 24.9585 27.4584 25.8964 26.9051C25.9908 26.8489 26.0557 26.8383 26.1526 26.902C26.9993 27.459 27.8793 27.9634 28.7877 28.4126C29.9947 29.0059 31.2399 29.5181 32.515 29.9458C33.4854 30.2754 34.4694 30.5508 35.4642 30.7894C36.1797 30.9629 36.8992 31.1167 37.6228 31.251C38.3729 31.3887 39.1265 31.5078 39.8835 31.6085C40.776 31.7278 41.6712 31.8242 42.5689 31.8976C43.5721 31.9785 44.5764 32.0297 45.5818 32.0613C46.5872 32.0928 47.587 32.0971 48.5894 32.0851C49.7737 32.0713 50.9558 32.0205 52.1402 31.9671C52.2547 31.962 52.3652 31.9512 52.4449 31.8546L52.4584 31.6147C52.39 31.4834 52.3633 31.3346 52.2724 31.2113ZM26.0349 25.5827C25.921 25.6526 25.8091 25.7853 25.6856 25.7734C25.5621 25.7615 25.4617 25.6421 25.3522 25.5677C23.7849 24.5038 22.2906 23.3363 20.8791 22.073C19.9979 21.2946 19.1693 20.4585 18.399 19.5701C17.2249 18.1982 16.2386 16.7094 15.565 15.0273C15.1018 13.8825 14.8059 12.677 14.6864 11.4478C14.6335 10.8871 14.6143 10.3233 14.6508 9.90011C14.7418 8.29034 15.1163 6.9043 15.8401 5.61822C16.5541 4.35136 17.5039 3.30499 18.7749 2.57513C19.763 2.00787 20.8213 1.71657 21.9671 1.83077C22.8298 1.91421 23.6559 2.22132 24.3636 2.72175C25.7097 3.66655 26.4487 4.99024 26.7409 6.58541C26.7878 6.85984 26.8186 7.13679 26.8331 7.41483C26.8511 7.69828 26.9869 7.93069 27.1865 8.12275C27.3096 8.2396 27.4194 8.21174 27.4855 8.05393C28.0568 6.69384 29.1089 5.85161 30.4426 5.31542C31.299 4.96149 32.2293 4.82349 33.1517 4.91355C34.1653 5.01763 35.1351 5.38108 35.9674 5.96889C36.7537 6.5139 37.3578 7.20961 37.7308 8.09612C38.0166 8.77549 38.1324 9.48811 38.1453 10.2213C38.1603 11.0848 37.9992 11.923 37.7911 12.7552C37.6099 13.5182 37.3449 14.2587 37.0009 14.9634C36.679 15.6046 36.2719 16.1954 35.8699 16.7859C34.9388 18.1314 33.8801 19.384 32.7083 20.5261C31.608 21.5977 30.4318 22.5886 29.1889 23.4911C28.1723 24.2413 27.1195 24.9324 26.0349 25.5827Z" fill="#9D1CB9" stroke="#9D1CB9" stroke-width="1.5" stroke-miterlimit="10"/>
</svg>
