<svg width="78" height="22" viewBox="0 0 78 22" fill="none" xmlns="http://www.w3.org/2000/svg">
<g opacity="0.85">
<path d="M17.3577 10.3563C17.2799 12.0449 16.1039 14.3567 13.8268 17.2918C11.4729 20.3573 9.48164 21.8901 7.85301 21.8901C6.8447 21.8901 5.99007 20.9571 5.29291 19.0902C4.82718 17.3791 4.36144 15.668 3.89577 13.9569C3.37756 12.0909 2.82184 11.157 2.22776 11.157C2.09844 11.157 1.6449 11.4301 0.869002 11.9736L0.0546875 10.9204C0.909297 10.1686 1.7517 9.41583 2.58105 8.66303C3.72053 7.67656 4.57606 7.15751 5.14577 7.10493C6.49332 6.97539 7.32262 7.89806 7.63371 9.87293C7.97013 12.0045 8.20252 13.3299 8.33369 13.848C8.72258 15.6163 9.14894 16.4996 9.61653 16.4996C9.97919 16.4996 10.5227 15.9261 11.2489 14.7791C11.9733 13.6321 12.3622 12.7592 12.4147 12.1594C12.5177 11.1691 12.1298 10.6736 11.2489 10.6736C10.8338 10.6736 10.4075 10.7693 9.96796 10.958C10.8188 8.16559 12.4446 6.80929 14.8435 6.88721C16.6212 6.94069 17.4598 8.09614 17.3577 10.3563Z" fill="#434345"/>
<path d="M28.0422 15.8256C27.316 17.1997 26.319 18.4453 25.0492 19.5603C23.3119 21.065 21.5764 21.8168 19.8409 21.8168C19.037 21.8168 18.4213 21.5577 17.994 21.0387C17.5667 20.5196 17.3661 19.8467 17.3924 19.016C17.4177 18.1609 17.6829 16.8374 18.1889 15.0475C18.694 13.2576 18.9479 12.2973 18.9479 12.1678C18.9479 11.4939 18.7136 11.156 18.248 11.156C18.0924 11.156 17.652 11.4291 16.9257 11.9726L16.0317 10.9213C16.8611 10.1695 17.6904 9.4167 18.5197 8.66391C19.6339 7.67743 20.4632 7.15838 21.0086 7.1058C21.8631 7.02885 22.491 7.27946 22.893 7.86232C23.2941 8.44523 23.4431 9.20078 23.3409 10.131C23.0036 11.7088 22.64 13.7127 22.2511 16.1428C22.2248 17.256 22.6269 17.8107 23.4562 17.8107C23.8188 17.8107 24.4663 17.4278 25.3997 16.6582C26.1765 16.0189 26.8118 15.4163 27.3048 14.8522L28.0422 15.8256ZM24.6603 1.97906C24.6341 2.62578 24.3108 3.24526 23.6877 3.8394C22.9876 4.51055 22.1583 4.84658 21.1997 4.84658C19.7229 4.84658 19.0098 4.20172 19.0623 2.91019C19.0875 2.23909 19.4821 1.59237 20.2467 0.972895C21.0123 0.353365 21.8603 0.0427246 22.7937 0.0427246C23.3381 0.0427246 23.7907 0.25672 24.1543 0.681889C24.517 1.10898 24.6856 1.54165 24.6603 1.97906Z" fill="#434345"/>
<path d="M52.3172 15.8257C51.5909 17.1998 50.5939 18.4453 49.3242 19.5604C47.5878 21.065 45.8514 21.8168 44.1159 21.8168C42.4301 21.8168 41.6149 20.8839 41.6664 19.0151C41.6917 18.1844 41.8538 17.1866 42.1518 16.019C42.4498 14.8514 42.6119 13.9437 42.6381 13.2951C42.6644 12.3096 42.3655 11.8159 41.7404 11.8159C41.0648 11.8159 40.2589 12.6212 39.3228 14.23C38.3342 15.9176 37.801 17.5527 37.7232 19.1352C37.6707 20.2522 37.7803 21.1091 38.0503 21.7052C36.2417 21.7577 34.9748 21.4583 34.2523 20.8097C33.6048 20.2381 33.3087 19.292 33.3602 17.9676C33.3855 17.1369 33.512 16.3062 33.7416 15.4755C33.9702 14.6449 34.0967 13.9052 34.123 13.2557C34.1754 12.2955 33.8241 11.8149 33.0725 11.8149C32.4231 11.8149 31.7222 12.5555 30.9697 14.0348C30.2173 15.5141 29.8022 17.059 29.7244 18.6678C29.6719 20.1217 29.7656 21.1336 30.0027 21.7042C28.2241 21.7568 26.9609 21.3813 26.2132 20.5779C25.5928 19.9058 25.3098 18.8837 25.3623 17.5114C25.3876 16.8394 25.5057 15.8998 25.7193 14.6965C25.933 13.4922 26.052 12.5555 26.0773 11.8816C26.1288 11.416 26.0117 11.1833 25.7277 11.1833C25.5722 11.1833 25.1318 11.4461 24.4056 11.9708L23.4731 10.9195C23.6025 10.8172 24.4187 10.0635 25.9227 8.6621C27.0106 7.65029 27.749 7.13215 28.1379 7.10586C28.8117 7.05333 29.3561 7.33209 29.7703 7.9422C30.1845 8.55231 30.3925 9.26002 30.3925 10.0644C30.3925 10.3235 30.3663 10.5703 30.3157 10.804C30.7046 10.208 31.1572 9.68801 31.6763 9.24592C32.8682 8.20878 34.2026 7.62304 35.6794 7.49351C36.9492 7.39026 37.8563 7.68781 38.4016 8.38898C38.8411 8.96061 39.0482 9.77811 39.0229 10.8425C39.2047 10.6876 39.3987 10.5187 39.6067 10.3366C40.2018 9.63549 40.7846 9.0779 41.3553 8.66306C42.3139 7.96189 43.3128 7.57334 44.3483 7.49447C45.5918 7.39122 46.4858 7.68781 47.0302 8.38616C47.4959 8.95497 47.7039 9.76971 47.6524 10.8294C47.6262 11.554 47.451 12.6081 47.1276 13.9916C46.8025 15.3751 46.6413 16.1692 46.6413 16.3766C46.6151 16.9201 46.6675 17.2946 46.7969 17.502C46.9262 17.7095 47.2364 17.8118 47.7293 17.8118C48.0919 17.8118 48.7385 17.4288 49.6727 16.6591C50.4495 16.02 51.0849 15.4174 51.5778 14.8532L52.3172 15.8257Z" fill="#434345"/>
<path d="M66.8931 15.7854C66.1411 17.03 64.6652 18.2736 62.462 19.5173C59.7156 21.0989 56.9285 21.8883 54.1053 21.8883C52.0061 21.8883 50.5021 21.1871 49.5951 19.7867C48.9476 18.8265 48.6364 17.6851 48.6627 16.3607C48.688 14.2592 49.6213 12.2609 51.4617 10.3658C53.4831 8.29047 55.8667 7.25146 58.6132 7.25146C61.1531 7.25146 62.5004 8.2877 62.6561 10.3592C62.7588 11.6789 62.0338 13.039 60.4789 14.4375C58.8197 15.9656 56.7328 16.9361 54.2204 17.35C54.6865 17.9977 55.386 18.3206 56.3198 18.3206C58.185 18.3206 60.2194 17.8457 62.4225 16.8948C64.0023 16.2265 65.2469 15.5329 66.1541 14.8139L66.8931 15.7854ZM58.0699 11.7202C58.0953 11.0238 57.8115 10.6746 57.2151 10.6746C56.4383 10.6746 55.6495 11.2105 54.8484 12.2825C54.0461 13.3544 53.632 14.3803 53.6066 15.3611C53.5919 15.3611 53.5919 15.5291 53.6066 15.8651C54.8743 15.4005 55.9739 14.691 56.9054 13.7354C57.6546 12.9094 58.0439 12.2374 58.0699 11.7202Z" fill="#434345"/>
<path d="M77.4457 13.176C77.3419 15.5611 76.4612 17.6213 74.8025 19.3577C73.1438 21.0942 71.0828 21.9624 68.6213 21.9624C66.575 21.9624 65.0195 21.3016 63.9577 19.9791C63.1809 18.9945 62.7526 17.764 62.6748 16.2866C62.5445 14.0574 63.3473 12.0093 65.085 10.1433C66.9507 8.06993 69.2949 7.03369 72.1192 7.03369C73.9325 7.03369 75.3057 7.6438 76.24 8.86114C77.1218 9.97625 77.5224 11.4142 77.4457 13.176ZM73.0529 13.0287C73.0789 12.3265 72.9819 11.6827 72.7613 11.0979C72.5412 10.5131 72.2225 10.2194 71.8095 10.2194C70.487 10.2194 69.3993 10.9355 68.5446 12.3651C67.8173 13.5355 67.4286 14.7838 67.3778 16.1092C67.3519 16.7597 67.4687 17.3322 67.7276 17.8259C68.0114 18.3985 68.4131 18.6838 68.9327 18.6838C70.0983 18.6838 71.0964 17.9958 71.9257 16.616C72.6253 15.4728 73.001 14.277 73.0529 13.0287Z" fill="#434345"/>
</g>
</svg>
